<svg width="36" height="37" viewBox="0 0 36 37" fill="none" xmlns="http://www.w3.org/2000/svg">
<path fill-rule="evenodd" clip-rule="evenodd" d="M18 33.5C26.2843 33.5 33 26.7843 33 18.5C33 10.2157 26.2843 3.5 18 3.5C9.71573 3.5 3 10.2157 3 18.5C3 26.7843 9.71573 33.5 18 33.5ZM25.5001 16.1213C26.0859 15.5355 26.0859 14.5858 25.5001 14C24.9144 13.4142 23.9646 13.4142 23.3788 14L15.5242 21.8546L12.0784 17.8345C11.5392 17.2055 10.5923 17.1326 9.96329 17.6718C9.3343 18.2109 9.26146 19.1578 9.8006 19.7868L14.3006 25.0368C14.5725 25.3541 14.9644 25.5435 15.3819 25.5595C15.7994 25.5756 16.2047 25.4167 16.5001 25.1213L25.5001 16.1213Z" fill="#16A249"/>
</svg>
