<svg width="65" height="65" viewBox="0 0 65 65" fill="none" xmlns="http://www.w3.org/2000/svg">
<g clip-path="url(#clip0_16_510)">
<mask id="mask0_16_510" style="mask-type:luminance" maskUnits="userSpaceOnUse" x="0" y="0" width="65" height="65">
<path d="M64.25 0.5H0.25V64.5H64.25V0.5Z" fill="white"/>
</mask>
<g mask="url(#mask0_16_510)">
<path d="M3.22088 54.4449C1.82237 50.7234 1.64459 15.3733 3.0036 11.233C4.22039 7.53131 6.23916 5.29527 9.7552 3.76243C13.532 2.11897 48.5898 1.71206 53.6229 3.2528C57.2298 4.35897 59.9043 6.90317 61.2634 10.5219C62.6737 14.279 62.8634 49.6054 61.4964 53.7733C60.2796 57.475 58.2609 59.7111 54.7448 61.2439C51.7937 62.5279 51.7937 62.5279 32.1473 62.5279C12.4969 62.5279 12.4969 62.5279 10.0515 61.4414C6.59471 59.9086 4.44953 57.7081 3.22088 54.4449ZM21.5755 32.3728C21.5834 36.8884 21.7295 38.6661 22.1759 39.5827C22.7685 40.7995 22.7685 40.7995 31.9537 40.7995C41.1389 40.8034 41.1389 40.8034 42.0357 39.713C42.8179 38.7649 42.9285 38.1842 42.9246 35.1343C42.9167 30.915 42.6599 30.358 39.1676 26.9723C36.5167 24.4044 36.5167 24.4044 29.9587 24.278C21.295 24.1121 21.5676 23.8513 21.5755 32.3728Z" fill="#F7B2B7" fill-opacity="0.988235"/>
<path d="M21.5754 32.3725C21.5675 23.851 21.2949 24.1118 29.9586 24.2777C36.5166 24.4041 36.5166 24.4041 39.1675 26.972C42.6598 30.3577 42.9166 30.9147 42.9245 35.134C42.9285 38.1839 42.8179 38.7646 42.0356 39.7127C41.1388 40.8031 41.1388 40.8031 31.9537 40.7992C22.7685 40.7992 22.7685 40.7992 22.1759 39.5824C21.7295 38.6658 21.5833 36.8881 21.5754 32.3725ZM40.5463 31.7127L40.9413 30.9226L35.4105 25.7868V31.3177L40.5463 31.7127Z" fill="#FCFCFC"/>
<path d="M40.5463 31.7072L35.4105 31.3121V25.7812L40.9414 30.9171L40.5463 31.7072Z" fill="#F7B2B7" fill-opacity="0.988235"/>
</g>
</g>
<defs>
<clipPath id="clip0_16_510">
<rect width="64" height="64" fill="white" transform="translate(0.25 0.5)"/>
</clipPath>
</defs>
</svg>
