<svg width="65" height="65" viewBox="0 0 65 65" fill="none" xmlns="http://www.w3.org/2000/svg">
<g clip-path="url(#clip0_16_534)">
<mask id="mask0_16_534" style="mask-type:luminance" maskUnits="userSpaceOnUse" x="0" y="0" width="65" height="65">
<path d="M64.25 0.5H0.25V64.5H64.25V0.5Z" fill="white"/>
</mask>
<g mask="url(#mask0_16_534)">
<path d="M2.86922 53.6936C1.53391 49.0951 1.95268 13.6818 3.3828 10.2171C4.82873 6.70895 7.63762 4.11339 11.0589 3.12179C15.6574 1.78648 51.0707 2.20524 54.5354 3.63537C58.0435 5.08129 60.6391 7.89018 61.6307 11.3114C62.8949 15.665 62.5631 51.1178 61.2277 54.5233C59.8845 57.9485 57.5932 60.228 54.1561 61.5554C51.6475 62.5272 51.6475 62.5272 32.0722 62.5272C12.4969 62.5272 12.4969 62.5272 9.83021 61.3539C6.44058 59.8605 3.82132 56.9766 2.86922 53.6936ZM21.5833 24.2062V40.7988H42.9166V24.2062H21.5833Z" fill="#6DCE96" fill-opacity="0.988235"/>
<path d="M21.5834 24.2031H42.9167V40.7957H21.5834V24.2031ZM23.9537 34.4747V38.8204H35.4105V34.4747H23.9537ZM36.5957 29.3389V38.8204H40.5463V29.3389H36.5957ZM23.9537 29.3389V33.6846H35.4105V29.3389H23.9537Z" fill="#FCFCFC"/>
<path d="M23.9537 34.4766H35.4105V38.8222H23.9537V34.4766Z" fill="#6DCE96" fill-opacity="0.988235"/>
<path d="M23.9537 29.3359H35.4105V33.6816H23.9537V29.3359Z" fill="#6DCE96" fill-opacity="0.988235"/>
<path d="M36.5957 29.3359H40.5463V38.8174H36.5957V29.3359Z" fill="#6DCE96" fill-opacity="0.988235"/>
</g>
</g>
<defs>
<clipPath id="clip0_16_534">
<rect width="64" height="64" fill="white" transform="translate(0.25 0.5)"/>
</clipPath>
</defs>
</svg>
