<svg width="656" height="137" viewBox="0 0 656 137" fill="none" xmlns="http://www.w3.org/2000/svg">
<path d="M53.2923 24.2162H40.3408V28.0185H49.5269C49.0717 33.3408 44.5894 35.6253 40.3563 35.6253C39.0153 35.6311 37.6866 35.3726 36.4477 34.8648C35.2087 34.3569 34.0845 33.61 33.1405 32.6676C32.1966 31.7251 31.4519 30.6061 30.9498 29.3757C30.4478 28.1454 30.1985 26.8284 30.2165 25.5017C30.2165 19.7455 34.7206 15.3136 40.3687 15.3136C44.7259 15.3136 47.2935 18.0618 47.2935 18.0618L49.9831 15.3044C49.9831 15.3044 46.528 11.5 40.2281 11.5C32.2058 11.5 26 18.1989 26 25.4342C26 32.5241 31.8375 39.4379 40.4308 39.4379C47.9897 39.4379 53.523 34.3142 53.523 26.7381C53.523 25.1394 53.2882 24.2162 53.2882 24.2162H53.2923Z" fill="#4D4D4D"/>
<path d="M63.9027 21.4622C58.5876 21.4622 54.7787 25.5736 54.7787 30.3668C54.7787 35.2326 58.4717 39.4198 63.9647 39.4198C68.9364 39.4198 73.0091 35.6604 73.0091 30.4712C73.0091 24.5348 68.2712 21.4611 63.9027 21.4611V21.4622ZM63.9544 24.9892C66.5674 24.9892 69.044 27.0802 69.044 30.4486C69.044 33.7444 66.5778 35.8958 63.942 35.8958C61.0455 35.8958 58.7696 33.6011 58.7696 30.422C58.7696 27.3105 61.0248 24.9892 63.9627 24.9892H63.9544Z" fill="#4D4D4D"/>
<path d="M83.7451 21.4622C78.43 21.4622 74.6211 25.5736 74.6211 30.3668C74.6211 35.2326 78.3141 39.4198 83.8071 39.4198C88.7788 39.4198 92.8515 35.6604 92.8515 30.4712C92.8515 24.5348 88.1136 21.4611 83.7451 21.4611V21.4622ZM83.7968 24.9892C86.4099 24.9892 88.8864 27.0802 88.8864 30.4486C88.8864 33.7444 86.4202 35.8958 83.7844 35.8958C80.8879 35.8958 78.6121 33.6011 78.6121 30.422C78.6121 27.3105 80.8672 24.9892 83.8051 24.9892H83.7968Z" fill="#4D4D4D"/>
<path d="M103.206 21.472C98.3276 21.472 94.4938 25.6991 94.4938 30.4441C94.4938 35.8483 98.9389 39.4326 103.121 39.4326C105.707 39.4326 107.083 38.4163 108.087 37.2505V39.0212C108.087 42.1194 106.185 43.975 103.316 43.975C100.543 43.975 99.1531 41.9351 98.6607 40.7786L95.1724 42.2115C96.4097 44.801 98.9006 47.5 103.345 47.5C108.207 47.5 111.891 44.4776 111.891 38.1379V22.0114H108.101V23.5323C106.932 22.2836 105.331 21.472 103.208 21.472H103.206ZM103.558 24.9929C105.95 24.9929 108.405 27.0133 108.405 30.4636C108.405 33.9712 105.954 35.9036 103.505 35.9036C100.904 35.9036 98.4848 33.8156 98.4848 30.4963C98.4848 27.0491 100.999 24.9918 103.558 24.9918V24.9929Z" fill="#4D4D4D"/>
<path d="M128.832 21.451C124.231 21.451 120.367 25.0744 120.367 30.4171C120.367 36.0731 124.673 39.4272 129.263 39.4272C133.103 39.4272 135.47 37.3493 136.867 35.4865L133.729 33.4212C132.915 34.6699 131.554 35.893 129.283 35.893C126.732 35.893 125.559 34.5111 124.832 33.1703L137 28.1756L136.379 26.712C135.204 23.8462 132.461 21.451 128.832 21.451ZM128.99 24.9044C130.648 24.9044 131.841 25.7764 132.348 26.8225L124.221 30.1828C123.87 27.581 126.363 24.9044 128.98 24.9044H128.99Z" fill="#4D4D4D"/>
<path d="M114.556 38.8946H118.554V12.4296H114.556V38.8946Z" fill="#4D4D4D"/>
<path d="M285.492 26.3556C286.671 26.3556 287.627 25.3929 287.627 24.2053C287.627 23.0176 286.671 22.0549 285.492 22.0549C284.313 22.0549 283.357 23.0176 283.357 24.2053C283.357 25.3929 284.313 26.3556 285.492 26.3556Z" fill="#4D4D4D"/>
<path d="M255.001 33.3748C256.048 33.3748 256.653 32.5836 256.612 31.8128C256.592 31.407 256.552 31.1433 256.512 30.9404C255.867 28.1409 253.612 26.0717 250.933 26.0717C247.751 26.0717 245.173 28.9727 245.173 32.5431C245.173 36.1135 247.751 39.0144 250.933 39.0144C252.927 39.0144 254.357 38.2841 255.384 37.1278C255.887 36.5598 255.787 35.6875 255.182 35.2614C254.679 34.9166 254.055 35.0383 253.591 35.4237C253.148 35.8092 252.303 36.5801 250.933 36.5801C249.322 36.5801 247.952 35.1803 247.65 33.3342H255.001V33.3748ZM250.913 28.5264C252.363 28.5264 253.612 29.6624 254.075 31.2244H247.751C248.214 29.6421 249.463 28.5264 250.913 28.5264Z" fill="#4D4D4D"/>
<path d="M245.294 27.3495C245.294 26.741 244.851 26.2541 244.287 26.1526C242.535 25.8889 240.883 26.5381 239.937 27.735V27.5727C239.937 26.8221 239.333 26.3555 238.729 26.3555C238.064 26.3555 237.52 26.9032 237.52 27.5727V37.513C237.52 38.1622 238.004 38.7302 238.648 38.7708C239.353 38.8114 239.937 38.2636 239.937 37.5536V32.4211C239.937 30.1491 241.629 28.2827 243.965 28.5464C244.045 28.5464 244.126 28.5464 244.206 28.5464C244.811 28.5059 245.294 27.9784 245.294 27.3495Z" fill="#4D4D4D"/>
<path d="M286.7 28.648C286.7 27.9785 286.157 27.4308 285.492 27.4308C284.827 27.4308 284.284 27.9785 284.284 28.648C284.284 28.6885 284.284 37.1683 284.284 37.5537C284.284 38.2232 284.827 38.7709 285.492 38.7709C286.157 38.7709 286.7 38.2232 286.7 37.5537C286.7 37.1885 286.7 28.7088 286.7 28.648Z" fill="#4D4D4D"/>
<path d="M268.736 21.9129C268.736 21.2434 268.192 20.6957 267.528 20.6957C266.863 20.6957 266.319 21.2434 266.319 21.9129V27.3294C265.494 26.4976 264.467 26.0919 263.238 26.0919C260.056 26.0919 257.478 28.9928 257.478 32.5632C257.478 36.1337 260.056 39.0346 263.238 39.0346C264.467 39.0346 265.514 38.6086 266.34 37.7769C266.44 38.3449 266.944 38.7709 267.528 38.7709C268.192 38.7709 268.736 38.2232 268.736 37.5537V21.9129ZM263.258 36.6205C261.405 36.6205 259.915 34.815 259.915 32.5632C259.915 30.3317 261.405 28.506 263.258 28.506C265.111 28.506 266.601 30.3115 266.601 32.5632C266.601 34.815 265.091 36.6205 263.258 36.6205Z" fill="#4D4D4D"/>
<path d="M281.343 21.9129C281.343 21.2434 280.8 20.6957 280.135 20.6957C279.47 20.6957 278.927 21.2434 278.927 21.9129V27.3294C278.101 26.4976 277.074 26.0919 275.845 26.0919C272.663 26.0919 270.085 28.9928 270.085 32.5632C270.085 36.1337 272.663 39.0346 275.845 39.0346C277.074 39.0346 278.121 38.6086 278.947 37.7769C279.047 38.3449 279.551 38.7709 280.135 38.7709C280.8 38.7709 281.343 38.2232 281.343 37.5537V21.9129ZM275.845 36.6205C273.992 36.6205 272.502 34.815 272.502 32.5632C272.502 30.3317 273.992 28.506 275.845 28.506C277.698 28.506 279.188 30.3115 279.188 32.5632C279.188 34.815 277.698 36.6205 275.845 36.6205Z" fill="#4D4D4D"/>
<path d="M292.823 37.574V28.5263H293.89C294.454 28.5263 294.957 28.1002 294.998 27.5119C295.038 26.8831 294.535 26.3556 293.93 26.3556H292.823V24.6516C292.823 24.0024 292.339 23.4344 291.695 23.3938C290.99 23.3532 290.406 23.901 290.406 24.611V26.3759H289.399C288.835 26.3759 288.332 26.8019 288.291 27.3902C288.251 28.0191 288.755 28.5465 289.359 28.5465H290.386V37.5943C290.386 38.2637 290.93 38.8115 291.594 38.8115C292.299 38.7709 292.823 38.2434 292.823 37.574Z" fill="#4D4D4D"/>
<path d="M210.01 29.5C209.043 29.5 208.258 30.2912 208.258 31.2649C208.258 32.2387 209.043 33.0501 210.01 33.0298C210.977 33.0298 211.762 32.2387 211.762 31.2649C211.762 30.2912 210.977 29.5 210.01 29.5Z" fill="#4D4D4D"/>
<path d="M213.897 37.2494C214.562 37.2494 216.857 37.1682 218.066 35.9511C218.227 35.7685 218.227 35.4845 218.066 35.3019C217.885 35.1193 217.603 35.1193 217.421 35.3019C216.676 36.0728 215.045 36.3365 213.897 36.3365C212.749 36.3365 211.138 36.0728 210.373 35.3019C210.191 35.1193 209.909 35.1193 209.728 35.3019C209.547 35.4845 209.547 35.7685 209.728 35.9511C210.916 37.148 213.212 37.2494 213.897 37.2494Z" fill="#4D4D4D"/>
<path d="M215.991 31.2852C215.991 32.2589 216.777 33.0501 217.743 33.0501C218.71 33.0501 219.496 32.2387 219.496 31.2852C219.496 30.3114 218.71 29.5203 217.743 29.5203C216.777 29.5203 215.991 30.3114 215.991 31.2852Z" fill="#4D4D4D"/>
<path fill-rule="evenodd" clip-rule="evenodd" d="M230.753 29.5C230.753 38.8888 223.198 46.5 213.877 46.5C204.556 46.5 197 38.8888 197 29.5C197 20.1112 204.556 12.5 213.877 12.5C223.198 12.5 230.753 20.1112 230.753 29.5ZM222.678 27.025C224.027 27.025 225.135 28.1205 225.135 29.5C225.135 30.5143 224.531 31.3866 223.685 31.7721C223.725 32.0155 223.745 32.2792 223.745 32.5227C223.745 36.3568 219.335 39.4403 213.897 39.4403C208.459 39.4403 204.049 36.3365 204.049 32.5227C204.049 32.2589 204.069 32.0155 204.109 31.7721C203.263 31.3866 202.659 30.5346 202.659 29.5203C202.659 28.1611 203.747 27.0453 205.116 27.0453C205.781 27.0453 206.385 27.3091 206.828 27.7351C208.54 26.4976 210.896 25.7064 213.514 25.6253L214.763 19.7017C214.783 19.5799 214.843 19.4785 214.944 19.4176C215.025 19.3568 215.146 19.3365 215.266 19.3568L219.355 20.2291C219.637 19.6408 220.241 19.2351 220.925 19.2351C221.892 19.2351 222.678 20.0262 222.678 21C222.678 21.9737 221.892 22.7649 220.925 22.7649C219.979 22.7649 219.214 22.0143 219.173 21.0811L215.508 20.29L214.38 25.605C216.958 25.7064 219.274 26.4976 220.966 27.7148C221.409 27.2888 222.013 27.025 222.678 27.025Z" fill="#4D4D4D"/>
<path d="M373.023 41.752C371.489 42.0171 369.928 42.0957 368.313 42.3058L363.388 28.1793V42.9108L359 43.5V16.5039H363.093L368.692 31.8168V16.5039H373.026L373.023 41.752ZM381.504 26.3871L387.265 26.3085V30.5254L381.504 30.6039V36.8762L389.122 36.4284V40.4871L377.195 41.4102V16.5039H389.122V20.7208H381.504V26.3871ZM405.14 20.7208H400.669V40.1179L396.362 40.1709V20.7198H391.893V16.5039H405.138L405.14 20.7208ZM412.14 26.0974H418.035V30.3142H412.14V39.8812H407.912V16.5039H419.946V20.7208H412.139L412.14 26.0974ZM426.946 36.1907L434.268 36.56V40.7238L422.637 40.1709V16.5039H426.945L426.946 36.1907ZM437.902 41.0125L442.129 41.3287V16.5039H437.902V41.0125ZM461 16.5029L455.535 29.3381L461 43.4892L456.155 42.7252L453.059 34.9239L449.91 42.0927L445.279 41.5389L450.824 29.178L445.817 16.5H450.447L453.274 23.5903L456.289 16.5L461 16.5029Z" fill="#4D4D4D"/>
<path d="M554.972 37.5587L556.337 34.4867C557.812 35.5533 559.771 36.108 561.708 36.108C563.139 36.108 564.041 35.5747 564.041 34.764C564.019 32.5027 555.478 34.2733 555.412 28.5987C555.39 25.7187 558.032 23.5 561.774 23.5C563.997 23.5 566.22 24.0333 567.805 25.2493L566.528 28.3853C565.076 27.4893 563.271 26.8493 561.554 26.8493C560.387 26.8493 559.617 27.3827 559.617 28.0653C559.639 30.284 568.245 29.068 568.333 34.4867C568.333 37.4307 565.758 39.5 562.06 39.5C559.353 39.5 556.865 38.8813 554.972 37.5587Z" fill="#4D4D4D"/>
<path d="M607.745 33.3773C607.064 34.5293 605.79 35.3187 604.319 35.3187C602.145 35.3187 600.388 33.612 600.388 31.5C600.388 29.388 602.145 27.6813 604.319 27.6813C605.79 27.6813 607.064 28.4707 607.745 29.6227L611.5 27.596C610.094 25.164 607.393 23.5 604.319 23.5C599.773 23.5 596.083 27.084 596.083 31.5C596.083 35.916 599.773 39.5 604.319 39.5C607.415 39.5 610.094 37.8573 611.5 35.404L607.745 33.3773Z" fill="#4D4D4D"/>
<path d="M574.5 16.5H570.389V39.5H574.5V16.5Z" fill="#4D4D4D"/>
<path d="M613.556 16.5V39.5H618.298V32.6022L623.928 39.5H630L622.842 31.3061L629.468 23.6614H623.662L618.298 30.01V16.5H613.556Z" fill="#4D4D4D"/>
<path d="M589.127 33.42C588.417 34.508 586.952 35.3187 585.303 35.3187C583.036 35.3187 581.204 33.612 581.204 31.5C581.204 29.388 583.036 27.6813 585.303 27.6813C586.952 27.6813 588.417 28.5347 589.127 29.644V33.42ZM589.127 23.82V25.6333C588.326 24.3747 586.334 23.5 584.25 23.5C579.945 23.5 576.556 27.0413 576.556 31.4787C576.556 35.916 579.945 39.5 584.25 39.5C586.334 39.5 588.326 38.6253 589.127 37.3667V39.18H594.028V23.82H589.127Z" fill="#4D4D4D"/>
<path d="M525.167 33.5C525.167 35.1591 523.788 36.5 522.083 36.5C520.378 36.5 519 35.1591 519 33.5C519 31.8409 520.378 30.5 522.083 30.5H525.167V33.5Z" fill="#4D4D4D"/>
<path d="M526.194 33.3889C526.194 31.7912 527.573 30.5 529.278 30.5C530.983 30.5 532.361 31.7912 532.361 33.3889V40.6111C532.361 42.2088 530.983 43.5 529.278 43.5C527.573 43.5 526.194 42.2088 526.194 40.6111V33.3889Z" fill="#4D4D4D"/>
<path d="M529.278 21.5C527.573 21.5 526.194 20.3826 526.194 19C526.194 17.6174 527.573 16.5 529.278 16.5C530.983 16.5 532.361 17.6174 532.361 19V21.5H529.278Z" fill="#4D4D4D"/>
<path d="M529.397 23.5C531.036 23.5 532.361 24.8409 532.361 26.5C532.361 28.1591 531.036 29.5 529.397 29.5H521.964C520.325 29.5 519 28.1591 519 26.5C519 24.8409 520.325 23.5 521.964 23.5H529.397Z" fill="#4D4D4D"/>
<path d="M541.611 26.5C541.611 24.8409 542.76 23.5 544.181 23.5C545.601 23.5 546.75 24.8409 546.75 26.5C546.75 28.1591 545.601 29.5 544.181 29.5H541.611V26.5Z" fill="#4D4D4D"/>
<path d="M539.556 26.616C539.556 28.2109 538.407 29.5 536.986 29.5C535.565 29.5 534.417 28.2109 534.417 26.616V19.384C534.417 17.7891 535.565 16.5 536.986 16.5C538.407 16.5 539.556 17.7891 539.556 19.384V26.616Z" fill="#4D4D4D"/>
<path d="M536.986 37.5C538.407 37.5 539.556 38.8409 539.556 40.5C539.556 42.1591 538.407 43.5 536.986 43.5C535.565 43.5 534.417 42.1591 534.417 40.5V37.5H536.986Z" fill="#4D4D4D"/>
<path d="M537.153 36.5C535.64 36.5 534.417 35.1591 534.417 33.5C534.417 31.8409 535.64 30.5 537.153 30.5H544.014C545.527 30.5 546.75 31.8409 546.75 33.5C546.75 35.1591 545.527 36.5 544.014 36.5H537.153Z" fill="#4D4D4D"/>
<path d="M114.901 114.229C80.4354 110.469 51.6514 117.391 45.0735 120.146C41.4378 121.577 41.0927 123.507 41.6063 124.561C41.9914 125.351 43.7629 125.929 45.5853 125.084C59.6044 118.568 87.4788 113.945 114.822 116.428C114.985 116.434 115.148 116.41 115.3 116.356C115.453 116.303 115.593 116.222 115.712 116.118C115.831 116.014 115.927 115.888 115.994 115.749C116.061 115.609 116.098 115.459 116.103 115.306C116.122 114.788 115.59 114.252 114.901 114.229ZM123.791 104.689C122.22 106.19 120.113 107.284 119.443 106.743C118.774 106.202 119.532 104.286 119.532 104.286C123.048 102.333 129.848 97.2551 129.996 93.1165C130.131 89.366 126.593 88.0805 122.75 91.4462C119.61 94.4473 117.267 98.2525 115.879 102.349C113.887 104.094 110.636 106.315 107.883 106.221C106.368 106.17 106.13 105.126 106.314 103.837C108.655 103.917 115.329 102.33 115.514 97.1571C115.547 96.2518 115.162 95.4618 114.497 94.7917C113.831 94.1217 113.015 93.835 112.046 93.9317C109.017 93.8288 105.197 96.5479 103.121 100.621C102.713 100.478 102.167 100.33 101.763 100.057C102.351 99.0411 102.663 98.0158 103.114 96.9952C103.606 94.8106 102.688 93.4845 100.889 93.6825C99.65 93.6404 98.236 94.6283 97.744 96.8129C97.5645 97.9722 97.798 99.1455 98.1786 100.065C97.2642 102.494 93.8529 105.357 92.7561 105.19C91.6593 105.023 93.0518 100.797 94.2694 97.6014C94.9811 96.9781 95.4173 96.3455 95.8629 95.4542C96.1615 94.8169 96.0517 94.0362 95.3726 93.7542C93.7436 93.0515 91.7882 93.762 91.044 95.2906C90.6031 96.0526 90.162 96.8145 89.7164 97.7058C88.7155 98.7078 87.2875 100.084 86.8791 99.9405C86.3423 99.5338 88.5005 97.0171 88.2809 95.456C88.1851 94.2872 86.9784 93.3398 85.7346 93.4273C83.7978 93.6203 81.3364 96.9035 81.3364 96.9035C81.635 96.2662 81.7959 95.6242 81.9568 94.9822C81.8656 93.6842 79.4059 93.0828 78.0831 95.3687C77.1781 97.5392 76.406 99.8438 76.047 102.163C75.4591 103.178 73.2821 106.212 71.6253 106.286C70.2438 106.368 72.1005 100.734 72.3851 100.484C73.1107 99.4732 74.1535 97.3073 74.053 96.2678C74.0716 95.7505 73.9478 95.3578 73.5441 95.0851C73.1403 94.8124 72.5943 94.6644 72.1766 94.7797C71.3412 95.0104 70.6342 95.5043 70.1979 96.1369C69.6704 95.4716 68.7206 95.0509 67.7521 95.1475C62.2263 95.4779 58.4589 104.414 58.7186 108.696C58.9104 111.034 60.0984 112.498 62.1776 112.18C64.5275 112.001 66.5758 108.704 66.5758 108.704C66.5758 108.704 67.029 111.439 69.6542 111.269C71.6004 110.817 73.2944 109.709 74.5893 108.199C74.5846 108.328 74.4425 108.453 74.4332 108.712C73.9363 111.026 77.9386 110.902 78.279 109.101C79.8295 100.478 82.9839 97.0889 83.81 97.1169C84.4984 97.1403 81.7384 101.061 83.1925 102.794C84.3852 104.129 86.4876 103.164 88.3286 101.802C88.016 102.828 87.8365 103.987 87.6617 105.017C87.4357 107.47 88.3298 109.442 90.8129 109.397C94.1219 109.38 97.7034 105.617 100.174 102.075C100.711 102.482 101.39 102.764 102.074 102.916C101.766 103.812 101.733 104.718 101.705 105.494C101.741 108.344 103.769 109.448 106.252 109.403C109.01 109.367 112.384 107.539 114.657 105.674C114.652 105.804 114.648 105.933 114.51 105.928C114.321 107.346 114.508 109.813 116.569 110.012C118.905 110.221 123.115 108.163 125.268 105.775C126.81 105.051 125.076 103.438 123.791 104.689ZM126.412 93.1244C126.687 93.1337 126.816 93.397 126.806 93.6557C126.718 96.113 120.203 100.942 120.203 100.942C120.203 100.942 124.622 93.0636 126.412 93.1244ZM110.81 97.6448C111.085 97.6542 111.223 97.6589 111.352 97.9222C111.48 98.1855 111.475 98.3149 111.471 98.4442C111.419 99.8668 109.455 100.836 107.252 100.761C108.551 99.122 109.846 97.6121 110.81 97.6448ZM67.9933 99.9469C67.8045 101.365 64.8138 107.867 63.437 107.82C61.6425 107.889 64.7307 98.6706 67.622 98.7688C68.1728 98.7874 68.1588 99.1756 67.9933 99.9469ZM44.6595 100.968C46.4496 101.028 42.8339 109.581 43.1122 113.346C43.3905 117.111 47.8335 116.226 47.6371 114.018C47.2211 110.248 50.3976 98.5728 53.0136 98.6616C54.9411 98.727 50.5226 106.605 51.1674 111.677C51.602 114.929 56.3157 114.183 55.844 111.965C54.5665 105.318 59.7507 99.1492 59.2296 94.4698C59.0241 92.5205 57.822 91.4438 56.5828 91.4017C52.177 91.2522 48.2906 99.6667 48.2906 99.6667C48.2906 99.6667 49.0132 94.9 45.3051 94.5151C40.0823 94.0789 34.2666 106.313 34 117.569C34.0076 121.195 38.712 120.707 38.5389 117.853C38.4447 112.799 41.9059 100.874 44.6595 100.968Z" fill="#4D4D4D"/>
<path d="M209.507 90.5C199.821 90.5 192 98.1169 192 107.5C192 116.904 199.843 124.5 209.508 124.5C219.193 124.5 227.016 116.885 227.016 107.5C227.016 98.115 219.173 90.5 209.507 90.5ZM217.54 115.035C217.226 115.542 216.557 115.685 216.034 115.381C211.913 112.944 206.746 112.396 200.638 113.734C200.052 113.856 199.466 113.51 199.341 112.942C199.215 112.374 199.572 111.804 200.157 111.683C206.83 110.2 212.56 110.829 217.162 113.572C217.685 113.877 217.852 114.527 217.538 115.035H217.54ZM219.673 110.404C219.276 111.033 218.439 111.216 217.79 110.851C213.084 108.048 205.911 107.236 200.346 108.86C199.613 109.063 198.862 108.678 198.65 107.986C198.441 107.275 198.838 106.546 199.57 106.34C205.929 104.472 213.835 105.365 219.254 108.585C219.88 108.95 220.07 109.764 219.672 110.393L219.673 110.404ZM219.861 105.57C214.213 102.32 204.905 102.015 199.508 103.6C198.641 103.864 197.731 103.375 197.458 102.543C197.185 101.71 197.689 100.817 198.547 100.552C204.738 98.724 215.03 99.0898 221.514 102.827C222.288 103.274 222.539 104.249 222.078 105C221.66 105.772 220.635 106.016 219.862 105.569L219.861 105.57Z" fill="#4D4D4D"/>
<path d="M236.124 106.991C233.138 106.312 232.623 105.812 232.623 104.792C232.623 103.832 233.55 103.192 234.93 103.192C236.268 103.192 237.607 103.692 239.007 104.692C239.049 104.732 239.11 104.732 239.151 104.732C239.213 104.732 239.255 104.692 239.275 104.652L240.737 102.652C240.766 102.612 240.778 102.563 240.771 102.514C240.763 102.466 240.736 102.422 240.696 102.392C239.028 101.093 237.154 100.473 234.971 100.473C231.758 100.473 229.513 102.352 229.513 105.032C229.513 107.911 231.449 108.931 234.806 109.711C237.648 110.351 238.142 110.891 238.142 111.831C238.142 112.89 237.174 113.55 235.609 113.55C233.879 113.55 232.459 112.99 230.873 111.651C230.832 111.611 230.77 111.611 230.729 111.611C230.667 111.611 230.626 111.631 230.605 111.671L228.978 113.55C228.916 113.63 228.916 113.75 228.999 113.81C230.852 115.41 233.117 116.25 235.568 116.25C239.028 116.25 241.273 114.41 241.273 111.571C241.232 109.171 239.749 107.851 236.124 106.991ZM249.078 104.132C247.575 104.132 246.339 104.712 245.33 105.892V104.572C245.33 104.472 245.247 104.392 245.144 104.392H242.488C242.385 104.392 242.302 104.472 242.302 104.572V119.289C242.302 119.389 242.385 119.469 242.488 119.469H245.144C245.247 119.469 245.33 119.389 245.33 119.289V114.65C246.339 115.75 247.575 116.29 249.078 116.29C251.858 116.29 254.7 114.21 254.7 110.211C254.68 106.232 251.858 104.132 249.078 104.132ZM251.59 110.211C251.59 112.251 250.293 113.65 248.46 113.65C246.627 113.65 245.268 112.171 245.268 110.211C245.268 108.251 246.648 106.772 248.46 106.772C250.272 106.772 251.59 108.211 251.59 110.211ZM261.929 104.132C258.345 104.132 255.524 106.812 255.524 110.251C255.524 113.65 258.325 116.31 261.887 116.31C265.491 116.31 268.313 113.63 268.313 110.211C268.313 106.812 265.512 104.132 261.929 104.132ZM261.929 113.67C260.013 113.67 258.572 112.171 258.572 110.211C258.572 108.231 259.972 106.792 261.887 106.792C263.803 106.792 265.265 108.291 265.265 110.271C265.244 112.231 263.844 113.67 261.929 113.67ZM275.974 104.372H273.049V101.452C273.049 101.353 272.967 101.273 272.864 101.273H270.207C270.104 101.273 270.022 101.353 270.022 101.452V104.372H268.745C268.642 104.372 268.56 104.452 268.56 104.552V106.772C268.56 106.872 268.642 106.952 268.745 106.952H270.022V112.71C270.022 115.03 271.217 116.21 273.564 116.21C274.512 116.21 275.315 116.01 276.056 115.61C276.118 115.57 276.159 115.51 276.159 115.45V113.33C276.159 113.27 276.118 113.21 276.077 113.17C276.015 113.13 275.953 113.13 275.891 113.17C275.377 113.43 274.882 113.53 274.326 113.53C273.461 113.53 273.091 113.15 273.091 112.311V106.971H276.015C276.118 106.971 276.2 106.892 276.2 106.792V104.572C276.18 104.452 276.097 104.372 275.974 104.372ZM286.209 104.392V104.032C286.209 102.972 286.621 102.512 287.548 102.512C288.104 102.512 288.557 102.612 289.051 102.772C289.113 102.792 289.175 102.772 289.236 102.752C289.278 102.712 289.319 102.652 289.319 102.592V100.413C289.319 100.333 289.257 100.253 289.175 100.233C288.639 100.073 287.98 99.9327 286.95 99.9327C284.479 99.9327 283.182 101.273 283.182 103.832V104.372H281.905C281.802 104.372 281.699 104.452 281.699 104.552V106.792C281.699 106.892 281.781 106.971 281.905 106.971H283.182V115.85C283.182 115.95 283.264 116.03 283.367 116.03H286.024C286.127 116.03 286.209 115.95 286.209 115.85V106.971H288.701L292.511 115.85C292.078 116.79 291.646 116.97 291.069 116.97C290.596 116.97 290.101 116.83 289.607 116.57C289.566 116.55 289.504 116.55 289.442 116.55C289.401 116.57 289.339 116.61 289.319 116.65L288.413 118.569C288.371 118.669 288.413 118.769 288.495 118.809C289.442 119.309 290.287 119.509 291.337 119.509C293.314 119.509 294.385 118.609 295.353 116.23L299.986 104.632C300.007 104.572 300.007 104.512 299.966 104.452C299.925 104.392 299.863 104.372 299.801 104.372H297.021C296.939 104.372 296.856 104.432 296.836 104.492L293.994 112.371L290.884 104.472C290.863 104.392 290.781 104.352 290.699 104.352H286.209V104.392ZM280.278 104.372H277.621C277.518 104.372 277.436 104.452 277.436 104.552V115.85C277.436 115.95 277.518 116.03 277.621 116.03H280.278C280.381 116.03 280.463 115.95 280.463 115.85V104.572C280.484 104.452 280.381 104.372 280.278 104.372Z" fill="#4D4D4D"/>
<path d="M278.96 102.952C280.018 102.952 280.875 102.12 280.875 101.093C280.875 100.066 280.018 99.2332 278.96 99.2332C277.902 99.2332 277.045 100.066 277.045 101.093C277.045 102.12 277.902 102.952 278.96 102.952Z" fill="#4D4D4D"/>
<path fill-rule="evenodd" clip-rule="evenodd" d="M452 108.007C452 102.022 449.079 97.3 443.497 97.3C437.892 97.3 434.5 102.022 434.5 107.96C434.5 114.997 438.504 118.55 444.251 118.55C447.054 118.55 449.174 117.919 450.775 117.031V112.355C449.174 113.15 447.336 113.641 445.005 113.641C442.72 113.641 440.694 112.846 440.435 110.087H451.953C451.953 109.784 452 108.568 452 108.007ZM440.365 105.786C440.365 103.144 441.99 102.046 443.474 102.046C444.91 102.046 446.441 103.144 446.441 105.786H440.365Z" fill="#4D4D4D"/>
<path fill-rule="evenodd" clip-rule="evenodd" d="M425.488 97.3C423.149 97.3 421.646 98.3585 420.81 99.0949L420.5 97.6682H415.25V124.5L421.216 123.28L421.24 116.768C422.099 117.366 423.364 118.218 425.464 118.218C429.735 118.218 433.625 114.904 433.625 107.609C433.601 100.936 429.664 97.3 425.488 97.3ZM424.056 113.155C422.648 113.155 421.812 112.672 421.24 112.074L421.216 103.536C421.836 102.869 422.696 102.409 424.056 102.409C426.227 102.409 427.731 104.756 427.731 107.77C427.731 110.854 426.251 113.155 424.056 113.155Z" fill="#4D4D4D"/>
<path fill-rule="evenodd" clip-rule="evenodd" d="M407.375 96.45L413.5 95.1998V90.5L407.375 91.727V96.45Z" fill="#4D4D4D"/>
<path d="M413.5 98.15H407.375V117.7H413.5V98.15Z" fill="#4D4D4D"/>
<path fill-rule="evenodd" clip-rule="evenodd" d="M401.075 99.2433L400.725 97.5382H396V117.7H401.469V104.036C402.759 102.262 404.947 102.584 405.625 102.838V97.5382C404.925 97.2617 402.366 96.7547 401.075 99.2433Z" fill="#4D4D4D"/>
<path fill-rule="evenodd" clip-rule="evenodd" d="M389.677 93.05L383.774 94.2446L383.75 112.646C383.75 116.046 386.436 118.55 390.016 118.55C392 118.55 393.452 118.205 394.25 117.792V113.128C393.476 113.427 389.653 114.484 389.653 111.084V102.928H394.25V98.0351H389.653L389.677 93.05Z" fill="#4D4D4D"/>
<path fill-rule="evenodd" clip-rule="evenodd" d="M373.927 103.628C373.927 102.718 374.676 102.367 375.918 102.367C377.698 102.367 379.947 102.904 381.727 103.862V98.3743C379.783 97.6037 377.862 97.3 375.918 97.3C371.162 97.3 368 99.7754 368 103.909C368 110.354 376.902 109.326 376.902 112.105C376.902 113.179 375.965 113.529 374.653 113.529C372.709 113.529 370.225 112.735 368.258 111.661V117.219C370.436 118.153 372.638 118.55 374.653 118.55C379.525 118.55 382.875 116.145 382.875 111.965C382.852 105.006 373.927 106.244 373.927 103.628Z" fill="#4D4D4D"/>
<path d="M529.67 92.5H517V122.5L529.67 92.5Z" fill="#4D4D4D"/>
<path d="M538.584 92.5H551.238V122.5L538.584 92.5Z" fill="#4D4D4D"/>
<path d="M534.127 103.557L542.191 122.5H536.9L534.49 116.469H528.589L534.127 103.557Z" fill="#4D4D4D"/>
<path d="M571.908 111.578L573.401 115.819C573.451 115.926 573.525 115.975 573.657 115.975H576.53C576.687 115.975 576.711 115.901 576.687 115.746L570.752 99.4261C570.727 99.2953 570.702 99.2708 570.57 99.2708H567.005C566.906 99.2708 566.848 99.3444 566.848 99.4506C566.798 100.309 566.724 100.57 566.617 100.823L561.326 115.721C561.301 115.901 561.359 115.975 561.507 115.975H564.074C564.231 115.975 564.306 115.926 564.363 115.77L565.775 111.578H571.908ZM566.592 108.808C567.368 106.487 568.391 103.512 568.804 101.812H568.829C569.341 103.594 570.546 107.124 571.09 108.808H566.592Z" fill="#4D4D4D"/>
<path d="M584.316 116.228C585.859 116.228 587.502 115.95 589.169 115.239C589.301 115.19 589.326 115.133 589.326 115.01C589.276 114.553 589.219 113.891 589.219 113.384V98.0205C589.219 97.9224 589.219 97.8734 589.095 97.8734H586.297C586.19 97.8734 586.14 97.9224 586.14 98.0532V103.259C585.703 103.21 585.397 103.185 585.034 103.185C580.519 103.185 577.746 106.135 577.746 109.821C577.746 114.095 580.593 116.228 584.316 116.228ZM586.14 113.384C585.678 113.531 585.166 113.588 584.646 113.588C582.599 113.588 580.923 112.444 580.923 109.666C580.923 107.206 582.649 105.751 584.935 105.751C585.397 105.751 585.802 105.8 586.14 105.931V113.384Z" fill="#4D4D4D"/>
<path d="M598.252 103.185C594.398 103.185 592.012 106.111 592.012 109.723C592.012 112.951 593.911 116.228 598.195 116.228C601.818 116.228 604.36 113.588 604.36 109.641C604.36 106.16 602.206 103.185 598.252 103.185ZM598.096 105.751C600.275 105.751 601.199 107.606 601.199 109.723C601.199 112.338 599.837 113.638 598.252 113.638C596.296 113.638 595.141 112.011 595.141 109.666C595.141 107.255 596.371 105.751 598.096 105.751Z" fill="#4D4D4D"/>
<path d="M607.253 97.8734C607.146 97.8734 607.072 97.9224 607.072 98.0532V115.444C607.072 115.517 607.146 115.648 607.253 115.672C608.483 116.048 609.771 116.228 611.1 116.228C614.905 116.228 618.603 113.891 618.603 109.184C618.603 105.776 616.242 103.185 612.544 103.185C611.694 103.185 610.902 103.316 610.208 103.545L610.175 98.0777C610.175 97.8979 610.126 97.8734 609.944 97.8734H607.253ZM615.441 109.494C615.441 112.314 613.493 113.638 611.389 113.638C610.951 113.638 610.563 113.613 610.208 113.507V106.086C610.613 105.931 611.1 105.8 611.999 105.8C614.03 105.8 615.441 107.075 615.441 109.494Z" fill="#4D4D4D"/>
<path d="M629.045 110.41C630.3 110.41 631.331 110.385 631.686 110.303C631.818 110.279 631.868 110.23 631.893 110.123C631.967 109.846 632 109.265 632 108.554C632 106.135 630.531 103.185 626.734 103.185C622.855 103.185 620.7 106.315 620.7 109.846C620.7 112.976 622.368 116.228 627.039 116.228C628.789 116.228 629.92 115.95 630.894 115.493C630.993 115.444 631.043 115.362 631.043 115.215V113.098C631.043 112.976 630.968 112.951 630.894 113C629.92 113.409 628.863 113.613 627.708 113.613C625.091 113.613 623.903 112.183 623.829 110.41H629.045ZM623.829 108.219C624.035 106.977 624.827 105.629 626.602 105.629C628.558 105.629 629.07 107.255 629.07 107.991C629.07 108.015 629.07 108.121 629.07 108.195C628.963 108.219 628.632 108.219 627.658 108.219H623.829Z" fill="#4D4D4D"/>
</svg>
