<svg width="65" height="65" viewBox="0 0 65 65" fill="none" xmlns="http://www.w3.org/2000/svg">
<g clip-path="url(#clip0_16_499)">
<mask id="mask0_16_499" style="mask-type:luminance" maskUnits="userSpaceOnUse" x="0" y="0" width="65" height="65">
<path d="M64.5 0.5H0.5V64.5H64.5V0.5Z" fill="white"/>
</mask>
<g mask="url(#mask0_16_499)">
<path d="M3.42743 54.3024C2.05261 50.6836 1.92619 15.2545 3.2773 11.1617C4.49804 7.45203 6.4536 5.3029 10.0013 3.76216C13.7622 2.1266 48.8358 1.71179 53.8847 3.24067C57.4284 4.31129 60.3914 7.19129 61.6437 10.7785C63.2793 15.456 62.8052 51.857 61.059 55.4955C59.5459 58.652 57.2072 60.7024 53.8966 61.7809C51.8501 62.4486 50.0131 62.5118 32.2037 62.5197C12.7469 62.5276 12.7469 62.5276 10.0803 61.3266C6.7657 59.8333 4.69952 57.6525 3.42743 54.3024ZM22.2284 28.7459C22.2284 31.5192 23.7454 33.937 28.1622 38.1878C30.3311 40.2777 32.2985 41.9844 32.5356 41.9844C32.7726 41.9844 34.665 40.3409 36.743 38.3301C38.821 36.3192 41.0255 33.8145 41.6457 32.7597C44.9208 27.1933 40.6817 21.5636 34.8743 23.7641C32.5435 24.6491 32.5435 24.6491 30.2956 23.7483C26.2146 22.1049 22.2284 24.574 22.2284 28.7459Z" fill="#2D87FC" fill-opacity="0.988235"/>
<path d="M22.2284 28.7456C22.2284 24.5738 26.2146 22.1046 30.2956 23.7481C32.5435 24.6488 32.5435 24.6488 34.8743 23.7639C40.6817 21.5634 44.9207 27.193 41.6457 32.7594C41.0254 33.8143 38.821 36.3189 36.743 38.3298C34.6649 40.3407 32.7726 41.9841 32.5356 41.9841C32.2985 41.9841 30.3311 40.2775 28.1622 38.1876C23.7454 33.9367 22.2284 31.5189 22.2284 28.7456Z" fill="#FCFCFC"/>
</g>
</g>
<defs>
<clipPath id="clip0_16_499">
<rect width="64" height="64" fill="white" transform="translate(0.5 0.5)"/>
</clipPath>
</defs>
</svg>
