<svg width="65" height="65" viewBox="0 0 65 65" fill="none" xmlns="http://www.w3.org/2000/svg">
<g clip-path="url(#clip0_16_549)">
<mask id="mask0_16_549" style="mask-type:luminance" maskUnits="userSpaceOnUse" x="0" y="0" width="65" height="65">
<path d="M64.5 0.5H0.5V64.5H64.5V0.5Z" fill="white"/>
</mask>
<g mask="url(#mask0_16_549)">
<path d="M3.42343 54.3502C1.87084 50.3404 1.94985 14.3621 3.51825 10.4431C4.90886 6.97048 7.06195 4.84505 10.5345 3.50974C14.7657 1.88209 50.5029 1.89789 54.5721 3.52555C57.9775 4.89246 60.1938 7.15221 61.5291 10.6248C63.1252 14.7809 63.0817 50.5655 61.4778 54.5754C60.1227 57.9532 57.8037 60.2446 54.4061 61.5562C51.8975 62.528 51.8975 62.528 32.3222 62.528C12.7469 62.528 12.7469 62.528 10.0802 61.327C6.78936 59.8416 4.70343 57.6569 3.42343 54.3502ZM21.6555 32.689C21.6555 35.5132 22.7774 38.2216 24.7744 40.2186C26.7714 42.2156 29.4799 43.3375 32.304 43.3375C35.1282 43.3375 37.8367 42.2156 39.8336 40.2186C41.8306 38.2216 42.9525 35.5132 42.9525 32.689C42.9525 29.8648 41.8306 27.1564 39.8336 25.1594C37.8367 23.1624 35.1282 22.0405 32.304 22.0405C29.4799 22.0405 26.7714 23.1624 24.7744 25.1594C22.7774 27.1564 21.6555 29.8648 21.6555 32.689Z" fill="#994FDD" fill-opacity="0.988235"/>
<path d="M21.6555 32.6876C21.6555 29.8634 22.7774 27.1549 24.7744 25.1579C26.7714 23.161 29.4799 22.0391 32.304 22.0391C35.1282 22.0391 37.8367 23.161 39.8336 25.1579C41.8306 27.1549 42.9525 29.8634 42.9525 32.6876C42.9525 35.5117 41.8306 38.2202 39.8336 40.2172C37.8367 42.2142 35.1282 43.3361 32.304 43.3361C29.4799 43.3361 26.7714 42.2142 24.7744 40.2172C22.7774 38.2202 21.6555 35.5117 21.6555 32.6876ZM31.3148 30.3842C31.3148 33.3985 31.3148 33.3985 33.8827 35.1249C35.297 36.0731 36.6086 36.8474 36.8022 36.8474C36.9958 36.8474 37.2684 36.5511 37.4066 36.1916C37.5963 35.6978 37.0669 35.1605 35.2772 34.0267C32.895 32.5215 32.895 32.5215 32.895 29.9457C32.895 27.6306 32.816 27.3659 32.1049 27.3659C31.3819 27.3659 31.3148 27.6306 31.3148 30.3842Z" fill="#FCFCFC"/>
<path d="M31.3148 30.3855C31.3148 27.6319 31.382 27.3672 32.1049 27.3672C32.8161 27.3672 32.8951 27.6319 32.8951 29.9469C32.8951 32.5227 32.8951 32.5227 35.2773 34.0279C37.0669 35.1618 37.5963 35.699 37.4067 36.1929C37.2684 36.5524 36.9958 36.8487 36.8022 36.8487C36.6086 36.8487 35.297 36.0743 33.8827 35.1262C31.3148 33.3998 31.3148 33.3998 31.3148 30.3855Z" fill="#994FDD" fill-opacity="0.988235"/>
</g>
</g>
<defs>
<clipPath id="clip0_16_549">
<rect width="64" height="64" fill="white" transform="translate(0.5 0.5)"/>
</clipPath>
</defs>
</svg>
