<svg width="65" height="65" viewBox="0 0 65 65" fill="none" xmlns="http://www.w3.org/2000/svg">
<g clip-path="url(#clip0_16_523)">
<mask id="mask0_16_523" style="mask-type:luminance" maskUnits="userSpaceOnUse" x="0" y="0" width="65" height="65">
<path d="M64.5 0.5H0.5V64.5H64.5V0.5Z" fill="white"/>
</mask>
<g mask="url(#mask0_16_523)">
<path d="M3.38788 54.2688C2.04862 50.5553 1.95776 15.1577 3.27727 11.1558C4.50196 7.43428 6.44961 5.29699 10.0328 3.74045C14.6155 1.74934 51.2575 1.90737 55.4926 3.93798C58.6491 5.45107 60.6995 7.78983 61.778 11.1005C62.9158 14.5888 62.9039 50.2471 61.7662 53.937C60.6916 57.4254 57.776 60.4042 54.2323 61.6328C51.7118 62.5098 51.3681 62.5217 32.2076 62.5217C12.7469 62.5217 12.7469 62.5217 10.2817 61.4353C6.92369 59.9538 4.54541 57.4846 3.38788 54.2688ZM27.0007 37.8975C26.5504 39.6713 26.179 41.2279 26.179 41.3543C26.179 41.4807 26.262 41.5834 26.3607 41.5834C26.4634 41.5834 27.8857 40.7696 29.5212 39.778C32.5 37.9686 32.5 37.9686 35.5104 39.7938C39.1449 42.0022 39.062 42.0614 38.019 37.9844C37.1775 34.6856 37.1775 34.6856 39.8758 32.2205C42.9138 29.4432 43.0876 29.6802 37.5923 29.1587C35.376 28.9493 35.376 28.9493 34.096 25.8837C32.7528 22.6679 32.5987 22.3874 32.342 22.6521C32.255 22.7429 31.6111 24.1967 30.9039 25.8837C29.6239 28.9493 29.6239 28.9493 27.4076 29.1548C22.1494 29.6407 22.1533 29.6328 25.1558 32.2995C27.8264 34.6698 27.8264 34.6698 27.0007 37.8975Z" fill="#EFC64C" fill-opacity="0.988235"/>
<path d="M27.0007 37.8996C27.8264 34.672 27.8264 34.672 25.1558 32.3016C22.1533 29.6349 22.1494 29.6428 27.4076 29.1569C29.6239 28.9515 29.6239 28.9515 30.9039 25.8858C31.6111 24.1989 32.255 22.7451 32.342 22.6542C32.5987 22.3895 32.7528 22.67 34.096 25.8858C35.376 28.9515 35.376 28.9515 37.5923 29.1609C43.0876 29.6823 42.9138 29.4453 39.8758 32.2226C37.1775 34.6878 37.1775 34.6878 38.019 37.9865C39.062 42.0636 39.1449 42.0043 35.5104 39.7959C32.5 37.9707 32.5 37.9707 29.5212 39.7801C27.8857 40.7717 26.4634 41.5855 26.3607 41.5855C26.262 41.5855 26.179 41.4828 26.179 41.3564C26.179 41.23 26.5504 39.6734 27.0007 37.8996Z" fill="#FCFCFC"/>
</g>
</g>
<defs>
<clipPath id="clip0_16_523">
<rect width="64" height="64" fill="white" transform="translate(0.5 0.5)"/>
</clipPath>
</defs>
</svg>
